<svg data-v-fde0c5aa="" xmlns="http://www.w3.org/2000/svg" viewBox="0 0 300 300" class="iconAbove"><!----><defs data-v-fde0c5aa=""><!----></defs><rect data-v-fde0c5aa="" fill="transparent" x="0" y="0" width="300px" height="300px" class="logo-background-square"></rect><defs data-v-fde0c5aa=""><!----></defs><g data-v-fde0c5aa="" id="1b15b30d-7f07-422d-aa3c-9efe7906b00a" fill="#000000" transform="matrix(4.481985699456052,0,0,4.481985699456052,14.756076389688047,173.56645245464352)"><path d="M2.65 11.87L2.65 3.82L1.17 3.82L1.17 13.15L6.27 13.15L6.27 11.87ZM12.35 6.53L12.16 7.45C11.65 6.78 10.88 6.36 9.86 6.36C8.14 6.36 6.77 7.69 6.77 9.84C6.77 12.00 8.14 13.31 9.86 13.31C10.86 13.31 11.64 12.89 12.15 12.22L12.35 13.15L13.52 13.15L13.52 6.53ZM10.19 12.12C9.00 12.12 8.21 11.14 8.21 9.84C8.21 8.55 9.00 7.55 10.19 7.55C11.43 7.55 12.24 8.55 12.24 9.84C12.24 11.14 11.43 12.12 10.19 12.12ZM18.73 6.36C17.79 6.36 17.09 6.75 16.68 7.32L16.51 6.53L15.27 6.53L15.27 13.15L16.68 13.15L16.68 9.11C16.80 7.95 17.59 7.57 18.33 7.57C19.35 7.57 19.79 8.30 19.79 9.38L19.79 13.15L21.20 13.15L21.20 9.06C21.20 7 19.88 6.36 18.73 6.36ZM27.81 3.24L27.81 7.32C27.30 6.72 26.57 6.36 25.62 6.36C23.90 6.36 22.53 7.69 22.53 9.84C22.53 12.00 23.90 13.31 25.62 13.31C26.61 13.31 27.39 12.91 27.90 12.25L28.07 13.15L29.23 13.15L29.23 3.24ZM25.96 12.12C24.76 12.12 23.98 11.14 23.98 9.84C23.98 8.55 24.76 7.55 25.96 7.55C27.20 7.55 28 8.55 28 9.84C28 11.14 27.20 12.12 25.96 12.12ZM40.94 13.15L37.38 9.54L40.53 6.53L38.67 6.53L36.09 9.04L36.09 3.24L34.68 3.24L34.68 13.15L36.09 13.15L36.09 10.06L39.05 13.15ZM42.55 5.26C43.06 5.26 43.47 4.86 43.47 4.36C43.47 3.86 43.06 3.46 42.55 3.46C42.06 3.46 41.65 3.86 41.65 4.36C41.65 4.86 42.06 5.26 42.55 5.26ZM41.88 13.15L43.27 13.15L43.27 6.53L41.88 6.53ZM48.65 6.36C47.72 6.36 47.02 6.75 46.61 7.32L46.43 6.53L45.19 6.53L45.19 13.15L46.61 13.15L46.61 9.11C46.73 7.95 47.51 7.57 48.26 7.57C49.28 7.57 49.71 8.30 49.71 9.38L49.71 13.15L51.13 13.15L51.13 9.06C51.13 7 49.80 6.36 48.65 6.36ZM58.03 6.53L57.84 7.47C57.33 6.80 56.55 6.36 55.53 6.36C53.81 6.36 52.44 7.67 52.44 9.81C52.44 11.96 53.81 13.27 55.53 13.27C56.50 13.27 57.25 12.89 57.76 12.26L57.76 12.43C57.76 14.13 57.25 15.02 55.85 15.02C55.49 15.02 55.10 14.95 54.75 14.79L54.42 15.98C54.86 16.13 55.40 16.22 55.93 16.22C58.09 16.22 59.18 14.95 59.18 12.54L59.18 6.53ZM55.87 12.07C54.67 12.07 53.89 11.11 53.89 9.81C53.89 8.53 54.67 7.54 55.87 7.54C57.11 7.54 57.91 8.53 57.91 9.81C57.91 11.11 57.11 12.07 55.87 12.07Z"></path></g><defs data-v-fde0c5aa=""><linearGradient data-v-fde0c5aa="" gradientTransform="rotate(25)" id="5ace23e2-0e68-417f-a343-135a3da617bc" x1="0%" y1="0%" x2="100%" y2="0%"><stop data-v-fde0c5aa="" offset="0%" stop-color="#006678" stop-opacity="1"></stop><stop data-v-fde0c5aa="" offset="100%" stop-color="#4FA8FF" stop-opacity="1"></stop></linearGradient></defs><g data-v-fde0c5aa="" id="a76c9a6a-9e9b-4e0a-bd04-ba46186d98e7" stroke="none" fill="url(#5ace23e2-0e68-417f-a343-135a3da617bc)" transform="matrix(2.2904003477313286,0,0,2.2904003477313286,35.59451398915925,-2.6081079187830625)"><path d="M31.7 75.4c5.2 0 9.4-4 9.9-9h20.8c.5 5 4.8 9 9.9 9s9.4-4 9.9-9h7.2V30.6c0-3.3-2.7-6-6-6h-44c-3.3 0-6 2.7-6 6v.3h-9.3c-3.4 0-6.5 1.9-8 4.9l-5.3 10.5c-.2.4-.3.9-.3 1.4v18.8h11.2c.5 4.9 4.8 8.9 10 8.9zm0-6c-2.2 0-4-1.8-4-4s1.8-4 4-4 4 1.8 4 4-1.8 4-4 4zm40.6 0c-2.2 0-4-1.8-4-4s1.8-4 4-4 4 1.8 4 4-1.8 4-4 4zM39.5 30.6h44v29.8H81c-1.7-3-5-5-8.6-5s-6.9 2-8.6 5H40.3c-.3-.5-.6-.9-.9-1.3 0-.2.1-.4.1-.7V30.6zm-15.3 6.3h9.3v7.7H18.4l3.1-6.1c.5-1 1.5-1.6 2.7-1.6zm-7.7 13.7h17v4.9c-.6-.1-1.2-.2-1.8-.2-3.7 0-6.9 2-8.6 5h-6.5v-9.7z"></path></g><!----></svg>