<?xml version="1.0" ?>
<!-- Uploaded to: SVG Repo, www.svgrepo.com, Generator: SVG Repo Mixer Tools -->
<svg fill="#000000" width="800px" height="800px" viewBox="0 0 512 512" xmlns="http://www.w3.org/2000/svg">
<title/>
<g id="earth_responsibility">
<path d="M110.28,79.25a10.5,10.5,0,0,0,0-19.4h0C99.05,55.2,96.65,52.8,92,41.57a10.49,10.49,0,0,0-19.4,0c-4.66,11.23-7,13.63-18.29,18.28a10.5,10.5,0,0,0,0,19.4c11,4.56,13.73,7.29,18.29,18.29a10.5,10.5,0,0,0,19.4,0C96.55,86.54,99.29,83.81,110.28,79.25Zm-28,10.5c-4.8-10.54-9.66-15.4-20.19-20.2C72.76,64.73,77.47,60,82.3,49.36,87.12,60,91.84,64.73,102.49,69.55,92,74.35,87.09,79.21,82.3,89.75Z"/>
<path d="M461.51,280.45h0c-11.23-4.66-13.63-7.05-18.28-18.28a10.5,10.5,0,0,0-19.4,0c-4.66,11.24-7.05,13.63-18.29,18.29a10.5,10.5,0,0,0,0,19.4c11,4.56,13.73,7.29,18.29,18.28a10.5,10.5,0,0,0,19.4,0c4.55-11,7.29-13.73,18.28-18.29a10.49,10.49,0,0,0,0-19.4Zm-28,29.89c-4.8-10.53-9.66-15.39-20.19-20.19,10.65-4.82,15.36-9.54,20.19-20.19,4.82,10.65,9.54,15.37,20.19,20.19C443.19,295,438.32,299.81,433.53,310.34Z"/>
<path d="M386.71,364.36H343a7,7,0,0,0-7,7v13.07l-30.27,8L235.4,362.32c-.22-.09-.44-.17-.67-.24a22.79,22.79,0,0,0-26.48,33.29h-4A80,80,0,0,1,184.8,393l-51.52-12.86a32.94,32.94,0,0,0-23.09,61.22L163,468.61a53.84,53.84,0,0,0,24.6,6H336v7.77a7,7,0,0,0,7,7h43.67a7,7,0,0,0,7-7v-111A7,7,0,0,0,386.71,364.36ZM336,460.58H187.6a39.82,39.82,0,0,1-18.18-4.41L116.61,428.9a18.94,18.94,0,0,1,13.28-35.2l51.52,12.87a94.28,94.28,0,0,0,22.81,2.8h24l14.46,7a7.11,7.11,0,0,0,3,.7,7,7,0,0,0,3.07-13.3l-24.77-12a8.82,8.82,0,0,1,6.2-16.43l72.22,30.93a7,7,0,0,0,4.54.33l29-7.7Zm43.67,14.77H350v-97h29.67Z"/>
<path d="M106.9,189.5a142.6,142.6,0,0,0,142.27,143h.39a141.47,141.47,0,0,0,102.15-43.1,142.7,142.7,0,0,0,35.47-61.9l.9-.38-.51-1.16A142.66,142.66,0,0,0,249.94,47.24c-2.4,0-4.76,0-7,.15a141.92,141.92,0,0,0-41.52,8.18,143.57,143.57,0,0,0-53.52,34.25,142.27,142.27,0,0,0-41,99.68Zm30.65,63.73a129,129,0,0,1-13.63-91.16c8,15.9,15.38,33.74,14.46,40.61l-.27,2,1,1.76c.5.86,12.2,20.84,38.51,28.82,1,3.7-.56,15.47-3.47,26l-.75,2.72,1.62,2.31c.41.59,9.85,14,21.22,20.55,1.29,2.46,3.46,9.16-4.27,18.06A129,129,0,0,1,137.55,253.23ZM355.61,117.05a127.87,127.87,0,0,1,22.59,73.19,129.61,129.61,0,0,1-.87,14.65c-3.43-5.75-5.05-6.32-6.39-6.77-2.38-.81-14.34-6.41-24.38-11.54-1.64-.84-2.63-1.34.45-9.08a30.32,30.32,0,0,0,1.74-5.21c1-5-2.51-10.66-6.56-17.18-1.67-2.69-4.46-7.19-4.71-8.68-1.56-9.59-14.84-14.12-28.9-18.9-20-6.83-35-13.76-44.34-20.61a5.81,5.81,0,0,1-1.44-1.37c.44-1.79,5.14-5.63,7.43-7.49,4.75-3.88,8.85-7.23,8.85-12.13.05-2.44,3.57-11.24,7.34-19.28A128.91,128.91,0,0,1,355.61,117.05ZM157.86,99.64a129.5,129.5,0,0,1,48.26-30.89,127.71,127.71,0,0,1,37.46-7.37c1.92-.1,3.91-.14,5.92-.14h.4a128.6,128.6,0,0,1,24.64,2.46c-3.12,6.79-6.89,15.85-7.4,21.1a46.25,46.25,0,0,1-4.5,4c-5.37,4.38-12,9.84-11.86,17.18.11,4.07,2.26,7.66,6.39,10.67,10.5,7.67,26.06,15,47.55,22.28,6.27,2.13,19.29,6.57,20.95,9.62.67,3.82,3.29,8.05,6.33,12.93,1.67,2.7,4.41,7.12,4.87,8.93-.2.68-.64,1.78-1,2.69-2.13,5.36-7.12,17.89,5.24,24.21,8.24,4.21,19.91,9.79,24.68,11.72,1.55,2.16,4.71,8.43,7.81,15.16a127.93,127.93,0,0,1-18.75,39.68,131.07,131.07,0,0,1-13.15,15.84,127.56,127.56,0,0,1-92.13,38.87h-.36a128.32,128.32,0,0,1-45.87-8.63c12.53-17.11,2-31.11,1.91-31.28l-.82-1.05-1.18-.61c-7-3.59-13.77-11.57-16.76-15.41.75-3.08,1.91-8.21,2.67-13.51.81-5.78,3-21.11-7-24a59.3,59.3,0,0,1-31.7-22.24c.07-15.25-14.91-44.11-21.66-56.34.18-.5.36-1,.55-1.51A127.94,127.94,0,0,1,157.86,99.64Z"/>
<path d="M211,216.17,240,239a15.35,15.35,0,0,0,19,0l29-22.86a33.86,33.86,0,0,0,13-26.76v-4.89A32.08,32.08,0,0,0,249.55,159a32.08,32.08,0,0,0-51.5,25.52v4.89A33.84,33.84,0,0,0,211,216.17Zm1-31.65a18.07,18.07,0,0,1,32.08-11.42,7,7,0,0,0,10.84,0,18.07,18.07,0,0,1,32.08,11.42v4.89a20,20,0,0,1-7.65,15.77L250.4,228a1.38,1.38,0,0,1-1.7,0l-29-22.86a20,20,0,0,1-7.65-15.77Z"/>
</g>
</svg>